<svg xmlns="http://www.w3.org/2000/svg" viewBox="0 0 100 100"><path d="M69.054 59.058l27.47 23.81c2.495 2.163 2.767 5.972.605 8.466l-.982 1.132c-2.162 2.494-5.97 2.766-8.465.604L60.418 69.438"/><path d="M2.358 41.458c0-19.744 16.005-35.75 35.75-35.75s35.75 16.006 35.75 35.75c0 19.746-16.005 35.75-35.75 35.75S2.36 61.204 2.36 41.46zm36.205 26.125c14.428 0 26.124-11.696 26.124-26.126 0-14.428-11.696-26.124-26.124-26.124-14.43 0-26.126 11.696-26.126 26.124 0 14.43 11.697 26.126 26.126 26.126z"/></svg>